<?xml version="1.0" encoding="UTF-8"?>
<svg width="140.9mm" height="11.641mm" version="1.1" viewBox="0 0 140.9 11.641" xmlns="http://www.w3.org/2000/svg" xmlns:cc="http://creativecommons.org/ns#" xmlns:dc="http://purl.org/dc/elements/1.1/" xmlns:rdf="http://www.w3.org/1999/02/22-rdf-syntax-ns#">
<metadata>
<rdf:RDF>
<cc:Work rdf:about="">
<dc:format>image/svg+xml</dc:format>
<dc:type rdf:resource="http://purl.org/dc/dcmitype/StillImage"/>
<dc:title/>
</cc:Work>
</rdf:RDF>
</metadata>
<path d="m16.395 9.1h-3.4054v-7.5548h3.4054v1.2144h-1.9998v1.7983h1.8551v1.2195h-1.8551v2.0928h1.9998z" fill="#fff" stroke-width=".26458"/>
<path d="m18.788 9.1h-1.3746v-8.0406h1.3746z" fill="#fff" stroke-width=".26458"/>
<path d="m22.059 9.2q-1.08 0-1.7053-0.76478-0.6201-0.76996-0.6201-2.1755 0-1.4262 0.56326-2.2272 0.56326-0.80096 1.5709-0.80096 0.94048 0 1.4831 0.68728 0.54259 0.6821 0.54259 1.9171v0.73378h-2.7646q0.0155 0.76996 0.31522 1.1472 0.29971 0.37205 0.8268 0.37205 0.67177 0 1.3746-0.41856v1.1317q-0.66144 0.39789-1.5864 0.39789zm-0.20153-4.9091q-0.29455 0-0.48574 0.31521-0.1912 0.31005-0.2222 0.96632h1.3952q-0.01033-0.63043-0.1912-0.95598-0.18086-0.32555-0.49608-0.32555z" fill="#fff" stroke-width=".26458"/>
<path d="m27.382 9.2q-0.37206 0-0.66144-0.16536-0.28421-0.17052-0.53225-0.59426h-0.07234q0.08268 0.70278 0.08268 0.84747v2.3512h-1.3849v-8.299h1.0645l0.2377 0.74928h0.06201q0.4289-0.8578 1.2454-0.8578 0.78546 0 1.2299 0.78029 0.4444 0.77512 0.4444 2.1962 0 1.4004-0.45991 2.1962t-1.2557 0.79579zm-0.42373-4.8006q-0.40306 0-0.58392 0.37723-0.1757 0.37206-0.18603 1.2402v0.18087q0 0.95081 0.18086 1.3849t0.59943 0.43407q0.72345 0 0.72345-1.8293 0-0.89914-0.18086-1.3435-0.17569-0.44441-0.55292-0.44441z" fill="#fff" stroke-width=".26458"/>
<path d="m32.931 9.1v-3.4312q0-1.266-0.6356-1.266-0.47541 0-0.6666 0.50125-0.1912 0.49608-0.1912 1.4314v2.7646h-1.3746v-8.0406h1.3746v1.788q0 0.34622-0.06201 1.235h0.07235q0.4134-0.84747 1.2712-0.84747 0.79062 0 1.1937 0.53742 0.40306 0.53225 0.40306 1.5709v3.7568z" fill="#fff" stroke-width=".26458"/>
<path d="m38.259 9.1-0.27388-0.78545h-0.031q-0.30488 0.50641-0.63043 0.69761-0.32555 0.19119-0.82163 0.19119-0.6356 0-1.0025-0.47541-0.36172-0.4754-0.36172-1.3229 0-0.90948 0.49608-1.3487 0.50124-0.44441 1.4934-0.49091l0.76479-0.031v-0.4134q0-0.80612-0.69761-0.80612-0.51675 0-1.1885 0.40306l-0.47541-0.95082q0.8578-0.54258 1.8655-0.54258 0.91464 0 1.3901 0.52708 0.48058 0.52192 0.48058 1.4831v3.8653zm-1.1937-0.97148q0.37723 0 0.59943-0.33589 0.22737-0.34105 0.22737-0.90431v-0.48574l-0.42373 0.0207q-0.47024 0.0258-0.69244 0.26871-0.21703 0.24287-0.21703 0.72344 0 0.71312 0.50641 0.71312z" fill="#fff" stroke-width=".26458"/>
<path d="m43.246 9.1v-3.4312q0-0.62527-0.14986-0.94565-0.14986-0.32039-0.48574-0.32039-0.4444 0-0.6511 0.44441-0.2067 0.43923-0.2067 1.4882v2.7646h-1.3746v-5.7566h1.0903l0.16536 0.73895h0.08785q0.18603-0.3979 0.53225-0.6201 0.34622-0.22737 0.8113-0.22737 0.78546 0 1.173 0.53742 0.39273 0.53742 0.39273 1.5709v3.7568z" fill="#fff" stroke-width=".26458"/>
<path d="m47.752 8.04q0.28938 0 0.62526-0.14469v1.0748q-0.33589 0.23253-1.0077 0.23253-0.74928 0-1.111-0.4444-0.36172-0.44957-0.36172-1.3436v-2.9816h-0.55809v-0.61493l0.71828-0.49608 0.35139-1.2195h0.87847v1.2402h1.0438v1.0903h-1.0438v3.0281q0 0.57876 0.46507 0.57876z" fill="#fff" stroke-width=".26458"/>
<path d="m54.072 5.25q0 1.8706-0.76479 2.8628-0.75962 0.98699-2.191 0.98699h-1.85v-7.5548h2.0205q1.3177 0 2.0515 0.97665 0.73378 0.97149 0.73378 2.7284zm-1.4417 0.0413q0-2.5321-1.3952-2.5321h-0.56326v5.1106h0.45474q0.76996 0 1.1368-0.64077 0.36689-0.64593 0.36689-1.9378z" fill="#fff" stroke-width=".26458"/>
<path d="m58.619 7.01q0 1.0593-0.53742 1.6226-0.53225 0.56325-1.5399 0.56325-0.98699 0-1.6794-0.38756v-1.39q0.84747 0.55292 1.5554 0.55292 0.40306 0 0.6046-0.2222 0.2067-0.2222 0.2067-0.6046 0-0.37722-0.24287-0.68727-0.24287-0.31522-0.80096-0.69761-0.48574-0.33589-0.73895-0.64077-0.24804-0.31005-0.38756-0.69244-0.13435-0.3824-0.13435-0.88881 0-0.97149 0.53742-1.5399 0.54258-0.56842 1.4521-0.56842 0.86814 0 1.6691 0.48574l-0.46507 1.1265q-0.24804-0.14469-0.52192-0.25837-0.26871-0.11369-0.57876-0.11369-0.34105 0-0.52708 0.22737-0.18086 0.22221-0.18086 0.60977 0 0.38239 0.21704 0.6666 0.2222 0.28421 0.76995 0.64594 0.73895 0.49607 1.0283 1.0128 0.29455 0.51675 0.29455 1.1782z" fill="#fff" stroke-width=".26458"/>
<path d="m63.678 3.87q0 1.204-0.60976 1.85-0.6046 0.64077-1.7518 0.64077h-0.35139v2.7388h-1.4056v-7.5548h1.9171q2.2013 0 2.2013 2.3254zm-2.7129 1.2712h0.26871q0.51675 0 0.76995-0.28421 0.25321-0.28421 0.25321-0.93015 0-0.59426-0.23254-0.87847-0.23254-0.28938-0.71828-0.28938h-0.34105z" fill="#fff" stroke-width=".26458"/>
<path d="m63.848 8.39q0-0.40307 0.21187-0.62527 0.21703-0.2222 0.64077-0.2222 0.42373 0 0.64077 0.2222 0.21703 0.21704 0.21703 0.62527 0 0.40306-0.22737 0.62526-0.2222 0.2222-0.63043 0.2222-0.41856 0-0.6356-0.2222-0.21703-0.22737-0.21703-0.62526z" fill="#fff" stroke-width=".26458"/>
<path d="m68.613 9.2q-1.0283 0-1.5657-0.74928-0.53742-0.74929-0.53742-2.2014 0-1.5192 0.50641-2.2685 0.51158-0.74929 1.5761-0.74929 0.32038 0 0.67177 0.093t0.63043 0.26871l-0.39273 1.0697q-0.4289-0.2532-0.75962-0.2532-0.43924 0-0.6356 0.4599-0.1912 0.45474-0.1912 1.3694 0 0.89397 0.1912 1.3384 0.1912 0.43924 0.62527 0.43924 0.51675 0 1.08-0.36172v1.2092q-0.54258 0.33588-1.1989 0.33588z" fill="#fff" stroke-width=".26458"/>
<path d="m74.902 6.21q0 1.4159-0.59943 2.2065-0.59943 0.78545-1.6433 0.78545-0.66144 0-1.1679-0.36172t-0.78029-1.0387q-0.27388-0.68211-0.27388-1.5916 0-1.4004 0.59426-2.1858 0.59426-0.79063 1.6484-0.79063 1.018 0 1.6174 0.80613 0.6046 0.80096 0.6046 2.1703zm-3.0591 0q0 0.89914 0.19636 1.359 0.19636 0.4599 0.63043 0.4599 0.8268 0 0.8268-1.819 0-0.90431-0.20153-1.3487-0.19636-0.44957-0.62526-0.44957-0.43407 0-0.63043 0.44957-0.19636 0.4444-0.19636 1.3487z" fill="#fff" stroke-width=".26458"/>
<path d="m81.583 9.1v-3.4312q0-1.266-0.62527-1.266-0.45474 0-0.6511 0.45474-0.19636 0.44957-0.19636 1.4469v2.7956h-1.3849v-3.4312q0-1.266-0.6356-1.266-0.4444 0-0.64594 0.44957-0.20153 0.44957-0.20153 1.4831v2.7646h-1.3746v-5.7566h1.0903l0.16536 0.73895h0.08785q0.2067-0.43924 0.56326-0.64077 0.36172-0.2067 0.76996-0.2067 1.0542 0 1.4056 0.99733h0.05168q0.43924-0.99733 1.4107-0.99733 0.76479 0 1.1575 0.53742 0.3979 0.53742 0.3979 1.5709v3.7568z" fill="#fff" stroke-width=".26458"/>
<path d="m88.187 6.16v2.9403h-1.4056v-7.5548h1.8396q1.1679 0 1.7208 0.55292 0.55809 0.55292 0.55809 1.6898 0 1.4314-0.96632 1.9998l1.4521 3.3124h-1.5037l-1.1937-2.9403zm0-1.2092h0.36172q0.49608 0 0.71311-0.27905 0.21703-0.28421 0.21703-0.8423 0-0.57876-0.23254-0.82163-0.22737-0.24804-0.70794-0.24804h-0.35139z" fill="#dc0000" stroke-width=".26458"/>
<path d="m96.252 6.21q0 1.4159-0.59943 2.2065-0.59943 0.78545-1.6433 0.78545-0.66144 0-1.1678-0.36172t-0.78029-1.0387q-0.27388-0.68211-0.27388-1.5916 0-1.4004 0.59426-2.1858 0.59426-0.79063 1.6484-0.79063 1.018 0 1.6174 0.80613 0.6046 0.80096 0.6046 2.1703zm-3.0591 0q0 0.89914 0.19636 1.359 0.19636 0.4599 0.63043 0.4599 0.8268 0 0.8268-1.819 0-0.90431-0.20153-1.3487-0.19636-0.44957-0.62527-0.44957-0.43407 0-0.63043 0.44957-0.19636 0.4444-0.19636 1.3487z" fill="#dc0000" stroke-width=".26458"/>
<path d="m101.48 6.21q0 1.4159-0.59943 2.2065-0.59942 0.78545-1.6433 0.78545-0.66143 0-1.1678-0.36172-0.50641-0.36172-0.78029-1.0387-0.27387-0.68211-0.27387-1.5916 0-1.4004 0.59426-2.1858 0.59426-0.79063 1.6484-0.79063 1.018 0 1.6174 0.80613 0.60459 0.80096 0.60459 2.1703zm-3.0592 0q0 0.89914 0.19637 1.359 0.19636 0.4599 0.63043 0.4599 0.8268 0 0.8268-1.819 0-0.90431-0.20154-1.3487-0.19636-0.44957-0.62526-0.44957-0.43407 0-0.63043 0.44957-0.19637 0.4444-0.19637 1.3487z" fill="#dc0000" stroke-width=".26458"/>
<path d="m108.16 9.1v-3.4312q0-1.266-0.62527-1.266-0.45474 0-0.6511 0.45474-0.19637 0.44957-0.19637 1.4469v2.7956h-1.3849v-3.4312q0-1.266-0.6356-1.266-0.4444 0-0.64594 0.44957-0.20153 0.44957-0.20153 1.4831v2.7646h-1.3746v-5.7566h1.0903l0.16536 0.73895h0.0878q0.2067-0.43924 0.56325-0.64077 0.36173-0.2067 0.76996-0.2067 1.0542 0 1.4056 0.99733h0.0517q0.43923-0.99733 1.4107-0.99733 0.76479 0 1.1575 0.53742 0.3979 0.53742 0.3979 1.5709v3.7568z" fill="#dc0000" stroke-width=".26458"/>
<path d="m114.77 6.16v2.9403h-1.4056v-7.5548h1.8396q1.1678 0 1.7208 0.55292 0.55808 0.55292 0.55808 1.6898 0 1.4314-0.96632 1.9998l1.4521 3.3124h-1.5037l-1.1937-2.9403zm0-1.2092h0.36172q0.49608 0 0.71311-0.27905 0.21704-0.28421 0.21704-0.8423 0-0.57876-0.23254-0.82163-0.22737-0.24804-0.70795-0.24804h-0.35138z" fill="#dc0000" stroke-width=".26458"/>
<path d="m120.69 9.2q-1.08 0-1.7053-0.76478-0.62009-0.76996-0.62009-2.1755 0-1.4262 0.56325-2.2272 0.56326-0.80096 1.5709-0.80096 0.94048 0 1.4831 0.68728 0.54259 0.6821 0.54259 1.9171v0.73378h-2.7646q0.0155 0.76996 0.31521 1.1472 0.29972 0.37205 0.8268 0.37205 0.67177 0 1.3746-0.41856v1.1317q-0.66144 0.39789-1.5864 0.39789zm-0.20153-4.9091q-0.29455 0-0.48574 0.31521-0.1912 0.31005-0.2222 0.96632h1.3952q-0.0103-0.63043-0.1912-0.95598-0.18086-0.32555-0.49608-0.32555z" fill="#dc0000" stroke-width=".26458"/>
<path d="m124.37 9.1-1.5037-5.7566h1.4262l0.73378 3.333q0.0465 0.23254 0.10852 0.68211 0.0672 0.44441 0.0827 0.64077h0.0207q5e-3 -0.15503 0.0413-0.4444 0.0413-0.28938 0.0827-0.53225 0.0413-0.24288 0.79579-3.6792h1.4262l-1.5089 5.7566z" fill="#dc0000" stroke-width=".26458"/>
<path d="m130.28 9.2q-1.08 0-1.7053-0.76478-0.6201-0.76996-0.6201-2.1755 0-1.4262 0.56325-2.2272 0.56326-0.80096 1.5709-0.80096 0.94048 0 1.4831 0.68728 0.54258 0.6821 0.54258 1.9171v0.73378h-2.7646q0.0155 0.76996 0.31522 1.1472 0.29971 0.37205 0.82679 0.37205 0.67177 0 1.3746-0.41856v1.1317q-0.66144 0.39789-1.5864 0.39789zm-0.20154-4.9091q-0.29454 0-0.48574 0.31521-0.1912 0.31005-0.2222 0.96632h1.3952q-0.0103-0.63043-0.1912-0.95598-0.18086-0.32555-0.49608-0.32555z" fill="#dc0000" stroke-width=".26458"/>
<path d="m135.49 3.23q0.25321 0 0.49608 0.0775l-0.16019 1.3332q-0.14469-0.0517-0.37723-0.0517-0.50125 0-0.76996 0.3979-0.2687 0.39272-0.2687 1.1472v2.961h-1.3746v-5.7566h1.1317l0.15503 0.89914h0.0465q0.22737-0.54258 0.49607-0.77512 0.26871-0.23254 0.62527-0.23254z" fill="#dc0000" stroke-width=".26458"/>
<path d="m139.21 3.23q0.78545 0 1.235 0.78029t0.44957 2.1962q0 1.4314-0.45473 2.2117-0.44957 0.78029-1.2505 0.78029-0.38756 0-0.68728-0.16536-0.29455-0.17052-0.55809-0.59426h-0.0878l-0.23254 0.65627h-1.0128v-8.0406h1.3746v1.881q0 0.11885-5e-3 0.24804-5e-3 0.12918-0.0672 0.9043h0.0723q0.25321-0.4754 0.54776-0.6666 0.29454-0.1912 0.67694-0.1912zm-0.47541 1.1678q-0.39273 0-0.56843 0.36689-0.17052 0.3669-0.18086 1.2919v0.13953q0 1.0025 0.1757 1.4107 0.18086 0.40823 0.58392 0.40823 0.74412 0 0.74412-1.8293 0-1.788-0.75445-1.788z" fill="#dc0000" stroke-width=".26458"/>
<path d="m10.583 5.29-1.3229 0.44095-0.44096 0.88191-0.44096-0.88191-0.44096 2.2048-0.44096-2.2048-0.44096 4.8506-0.44096-4.8506-0.44096 3.0867-0.44096-3.0867-0.44096 0.88191-0.44096-0.88191-0.44096 1.7638-0.44096-1.7638-0.44096 3.9686-0.44096-3.9686-0.44096 2.2048-0.44096-2.2048-0.44096 0.88191-0.44096-0.88191-1.3229-0.44095 1.3229-0.44097 0.44096-0.88191 0.44096 0.88191 0.44096-2.2048 0.44096 2.2048 0.44096-3.9686 0.44096 3.9686 0.44096-1.7638 0.44096 1.7638 0.44096-0.88191 0.44096 0.88191 0.44096-3.0867 0.44096 3.0867 0.44096-4.8505 0.44096 4.8505 0.44096-2.2048 0.44096 2.2048 0.44096-0.88191 0.44096 0.88191z" fill="#dc0000" stroke-width=".44096"/>
</svg>
