<?xml version="1.0" encoding="utf-8"?>
<!-- Generator: Adobe Illustrator 22.0.1, SVG Export Plug-In . SVG Version: 6.00 Build 0)  -->
<svg version="1.1" id="Layer_1" xmlns="http://www.w3.org/2000/svg" xmlns:xlink="http://www.w3.org/1999/xlink" x="0px" y="0px"
	 viewBox="0 0 116.2 107.7" style="enable-background:new 0 0 116.2 107.7;" xml:space="preserve">
<style type="text/css">
	.st0{fill-rule:evenodd;clip-rule:evenodd;fill:#030304;stroke:#FFFFFF;stroke-width:0.8877;stroke-miterlimit:10;}
	.st1{fill-rule:evenodd;clip-rule:evenodd;fill:#FFFFFF;}
	.st2{fill:#030304;}
	.st3{fill-rule:evenodd;clip-rule:evenodd;fill:#030304;}
	.st4{fill:#FFFFFF;}
</style>
<g>
	<rect x="1.8" y="1.2" class="st0" width="112.8" height="105.5"/>
</g>
<rect x="3.6" y="3" class="st1" width="109.2" height="69.5"/>
<g>
	<path class="st2" d="M20.3,58.5c-0.4,0.9-1.6,3.3-4.7,3.3c-2.6,0-5.1-1.7-5.1-5.8c0-2.4,1.4-5.6,5.1-5.6c2.8,0,3.9,1.8,4.4,3.3
		l-2,0.5c-0.1-1.2-1.1-2-2.3-2c-1.8,0-3,1.3-3,3.8c0,1.5,0.6,3.8,3,3.8c1.4,0,2.3-1.1,2.6-2.2L20.3,58.5z"/>
	<path class="st2" d="M26.8,50.4c3.3,0,5.2,2.7,5.2,5.6c0,2.5-1.3,5.8-5.2,5.8c-3.2,0-5.2-2.6-5.2-5.7C21.6,53,23.6,50.4,26.8,50.4z
		 M26.8,59.9c1.6,0,3.1-1.2,3.1-3.7c0-1.9-1-3.9-3.2-3.9c-1.8,0-3.1,1.4-3.1,3.8C23.7,57.8,24.5,59.9,26.8,59.9z"/>
	<path class="st2" d="M41.9,61.5c0-0.3,0.2-8.9,0.2-8.9l-2.3,8.9h-1.8l-2.3-8.9c0,0,0.2,8.5,0.2,8.9h-2V50.7h2.9l2.1,8l2.1-8h2.9
		v10.8H41.9z"/>
	<path class="st2" d="M51.2,50.7c2.2,0,3.8,1.4,3.8,3.6c0,2-1.1,3.5-4,3.5H49v3.7h-2V50.7H51.2z M49,56.2h1.8c1.4,0,2.2-0.7,2.2-1.9
		c0-1.7-1.4-1.8-2.4-1.8H49V56.2z"/>
	<path class="st2" d="M62.6,61.5l-0.6-2.1h-4.1l-0.6,2.1h-2.2l3.7-10.8H61l3.7,10.8H62.6z M59.9,52.7l-1.5,5h3L59.9,52.7z"/>
	<path class="st2" d="M68.9,52.5v9h-2v-9H64v-1.8h8v1.8H68.9z"/>
	<path class="st2" d="M73.5,61.5V50.7h2v10.8H73.5z"/>
	<path class="st2" d="M83.4,50.7c2.3,0,3.3,1.3,3.3,2.7c0,0.9-0.5,2.1-1.8,2.2c1,0.2,2.3,1,2.3,2.9c0,1.5-0.9,3.1-3.6,3.1h-5V50.7
		H83.4z M80.6,55.1h2c0.9,0,2-0.3,2-1.4c0-1.1-1.1-1.3-1.9-1.3h-2.1V55.1z M80.6,59.8h2.7c1.4,0,1.9-0.7,1.9-1.5
		c0-1.5-1.5-1.7-2.3-1.7h-2.3V59.8z"/>
	<path class="st2" d="M89.8,61.5V50.7h2v9h4.3v1.8H89.8z"/>
	<path class="st2" d="M97.4,61.5V50.7h7.7v1.8h-5.7v2.5h5.2v1.7h-5.2v2.9h6.1v1.8H97.4z"/>
</g>
<path class="st3" d="M69.3,19h36.2l0.1,6.4h-1.7c-0.6-2.2-2.2-3.7-4.9-4.4c-1.5-0.4-3.8-0.7-6.8-0.7v16c0,1.1,0.4,1.6,1.1,1.9
	c0.8,0.4,2.4,0.4,4.8,0.4v1.4H76.8v-1.4c2.3,0,3.9-0.2,4.7-0.5c0.8-0.4,1.2-0.7,1.2-1.8v-16c-2.9,0-5.2,0.3-6.7,0.7
	c-2.9,0.8-4.5,2.3-4.9,4.4c-0.5,0-1.7,0-1.7,0L69.3,19z"/>
<g>
	<path class="st3" d="M40.9,29.8l3.3,0.4l0.1,0.1c1.3,2.7,3.4,4.8,6.3,6c2.9,1.3,6.3,1.9,10.1,1.9c3.6,0,6.3-0.4,7.8-1.3
		c1.5-0.8,2.2-1.7,2.2-2.6c0-1-0.8-1.9-2.3-2.5c-1.1-0.5-3.3-1.1-6.5-1.8l-5.3-1.2c-5.2-1.2-9-2.4-11.1-3.6C43.1,24,42,22.5,42,20.7
		c0-1.9,1.5-3.7,4.4-5.4c2.9-1.6,7.3-2.4,13.2-2.4c3,0,5.9,0.2,8.7,0.6c1.8,0.3,4.3,0.6,4.8,0.6c1.1,0,1.5-0.2,1.7-0.3
		c0.3-0.2,0.6-0.5,0.8-0.9l0.1-0.1h2.8v8.7h-2.6l-0.1-0.1c-1.1-1.8-3-3.5-5.7-4.8c-2.7-1.4-6-2-9.8-2c-2.7,0-4.9,0.3-6.4,1
		c-1.5,0.6-2.2,1.4-2.2,2.3c0,1.1,0.7,1.9,2.1,2.5c1.5,0.6,4.8,1.5,9.8,2.6l6.1,1.4c2.7,0.6,4.9,1.3,6.5,2.1
		c3.1,1.5,4.7,3.3,4.7,5.4c0,2-1.7,3.9-5,5.6C72.4,39.2,67.2,40,60,40c-1.6,0-3.3-0.1-5-0.2c-1.7-0.1-3.4-0.4-5-0.6l-1.6-0.3
		c-0.4,0-0.7-0.1-1-0.1c-0.3,0-0.6-0.1-0.9-0.1c-0.8,0-1.3,0.1-1.6,0.3c-0.3,0.2-0.5,0.5-0.8,0.9L44.1,40l-3.2,0V29.8z"/>
	<path class="st4" d="M78.1,13.1v8.2h-2.3c-1.1-1.9-3-3.5-5.7-4.9c-2.7-1.4-6-2.1-9.9-2.1c-2.8,0-4.9,0.3-6.5,1
		c-1.6,0.7-2.4,1.5-2.4,2.5c0,1.2,0.8,2.1,2.3,2.7c1.5,0.6,4.8,1.5,9.9,2.6l6.1,1.4c2.7,0.6,4.9,1.3,6.5,2.1c3,1.4,4.5,3.2,4.5,5.2
		c0,1.9-1.6,3.7-4.9,5.4c-3.2,1.7-8.4,2.5-15.5,2.5c-1.6,0-3.3-0.1-5-0.2c-1.7-0.1-3.3-0.3-5-0.6l-1.6-0.3c-0.4,0-0.7-0.1-1.1-0.1
		c-0.3,0-0.6-0.1-0.9-0.1c-0.8,0-1.4,0.1-1.7,0.3c-0.3,0.2-0.6,0.5-0.8,1l-2.9,0v-9.7l2.9,0.4c1.3,2.8,3.4,4.9,6.4,6.1
		c3,1.3,6.3,1.9,10.1,1.9c3.7,0,6.3-0.4,7.9-1.3c1.6-0.9,2.3-1.8,2.3-2.8c0-1.1-0.8-2-2.5-2.8c-1.1-0.5-3.3-1.1-6.5-1.8l-5.3-1.2
		c-5.2-1.2-8.9-2.4-11.1-3.6c-2.1-1.2-3.2-2.6-3.2-4.4c0-1.8,1.4-3.6,4.2-5.2c2.9-1.6,7.2-2.4,13.1-2.4c3,0,5.9,0.2,8.6,0.6
		c2.8,0.4,4.4,0.6,4.8,0.6c0.9,0,1.5-0.1,1.9-0.3c0.3-0.2,0.6-0.6,0.8-1H78.1 M78.5,12.6h-0.5h-2.4h-0.3l-0.1,0.2
		c-0.2,0.3-0.4,0.6-0.7,0.8c-0.1,0.1-0.5,0.3-1.6,0.3c-0.5,0-3.7-0.5-4.7-0.6c-2.8-0.4-5.7-0.6-8.7-0.6c-5.9,0-10.4,0.8-13.3,2.5
		c-3,1.7-4.5,3.5-4.5,5.6c0,1.9,1.2,3.5,3.5,4.8c2.2,1.2,5.9,2.4,11.2,3.6l5.3,1.2c3.2,0.7,5.4,1.3,6.5,1.8c1.4,0.6,2.2,1.4,2.2,2.3
		c0,0.8-0.7,1.6-2.1,2.4c-1.5,0.8-4.1,1.2-7.7,1.2c-3.7,0-7.1-0.6-10-1.9c-2.8-1.2-4.9-3.2-6.1-5.9L44.3,30l-0.3,0l-2.9-0.4
		l-0.5-0.1v0.5v9.7v0.5l0.5,0l2.9,0l0.3,0l0.1-0.2c0.2-0.4,0.4-0.6,0.7-0.8c0.1-0.1,0.5-0.3,1.5-0.3c0.2,0,0.5,0,0.8,0.1
		c0.3,0,0.7,0.1,1.1,0.1l1.6,0.3c1.6,0.3,3.3,0.5,5,0.6c1.7,0.1,3.4,0.2,5,0.2c7.2,0,12.5-0.9,15.8-2.6c3.4-1.8,5.1-3.7,5.1-5.8
		c0-2.2-1.6-4.1-4.8-5.6c-1.6-0.8-3.9-1.5-6.6-2.1l-6.1-1.4c-5-1.1-8.3-2-9.8-2.6c-1.3-0.5-2-1.3-2-2.2c0-0.8,0.7-1.5,2.1-2.1
		c1.5-0.7,3.7-1,6.4-1c3.8,0,7.1,0.7,9.7,2c2.7,1.3,4.5,2.9,5.6,4.7l0.1,0.2h0.3h2.3h0.5v-0.5v-8.2V12.6L78.5,12.6z"/>
</g>
<g>
	<g>
		<path class="st3" d="M28.3,40.6L13.2,22.9c-0.6-0.7-1.2-1.2-1.8-1.5c-0.6-0.3-2.3-0.5-3.8-0.5l-0.2,0v-1.4h21v1.5l-0.2,0
			c-2.1,0.1-3.4,0.1-4.1,0.3c-0.7,0.1-0.7,0.4-0.7,0.7c0,0.1,0,0.3,0,0.4c0,0.1,0.1,0.2,0.2,0.3l8.8,10.8h0.1l7.6-9.9
			c0.2-0.2,0.3-0.4,0.4-0.6c0.3-0.4,0.3-0.7,0.3-0.8c0-0.3-0.1-0.7-0.8-0.8c-0.6-0.1-2-0.2-4-0.3l-0.2,0v-1.5h13.8v1.4l-0.2,0
			c-1.5,0.1-3.4,0.3-4,0.6c-0.7,0.3-1.3,0.9-2,1.7L30.1,40.6H28.3z"/>
		<path class="st4" d="M49.5,19.7v1c-1.4,0.1-3.4,0.3-4.1,0.6c-0.7,0.3-1.4,0.9-2.1,1.8L30,40.4h-1.6L13.3,22.7
			c-0.6-0.7-1.2-1.2-1.9-1.5c-0.6-0.3-2.5-0.5-3.9-0.6v-1h20.5v1c-2.1,0.1-3.5,0.2-4.1,0.3c-0.6,0.1-0.9,0.4-0.9,0.9
			c0,0.1,0,0.3,0.1,0.4c0.1,0.1,0.2,0.3,0.3,0.4l8.9,10.9h0.3l7.7-9.9c0.2-0.2,0.3-0.4,0.5-0.7c0.2-0.4,0.3-0.7,0.3-0.9
			c0-0.6-0.3-0.9-1-1c-0.6-0.1-2-0.3-4-0.3v-1H49.5 M50,19.2h-0.5H36.2h-0.5v0.5v1v0.5l0.5,0c2,0.1,3.3,0.2,3.9,0.3
			c0.6,0.1,0.6,0.4,0.6,0.6c0,0.1,0,0.3-0.3,0.7c-0.1,0.2-0.3,0.4-0.4,0.6L32.5,33l-8.7-10.6c-0.1-0.1-0.2-0.2-0.2-0.3
			c0-0.1,0-0.2,0-0.3c0-0.1,0-0.3,0.5-0.4c0.6-0.1,1.9-0.2,4-0.3l0.5,0v-0.5v-1v-0.5h-0.5H7.6H7.1v0.5v1v0.4l0.4,0
			c1.7,0.1,3.2,0.3,3.7,0.5c0.6,0.3,1.2,0.8,1.7,1.4l15.1,17.6l0.1,0.2h0.2H30h0.2l0.1-0.2l13.4-17.3c0.6-0.8,1.3-1.3,1.9-1.6
			c0.5-0.3,2.1-0.5,3.9-0.6l0.4,0v-0.4v-1V19.2L50,19.2z"/>
	</g>
</g>
<g>
	<path class="st4" d="M14.1,87.1h-0.5l-1.2-7.3h0.5l1,6.3l1.1-6.3h0.5L14.1,87.1z"/>
	<path class="st4" d="M16.8,84.7v0.6c0,0.6,0,0.9,0.2,1.1c0.2,0.3,0.6,0.4,0.9,0.4c0.7,0,0.9-0.5,0.9-1.2c0-0.8-0.2-1.1-1.1-2
		c-0.8-0.8-1.3-1.3-1.3-2.3c0-0.6,0.1-1.6,1.4-1.6c1.3,0,1.4,1,1.4,1.7v0.5h-0.5v-0.7c0-0.4,0-1.1-0.9-1.1c-0.6,0-0.9,0.4-0.9,1.1
		s0.1,1,1.2,2.1c0.8,0.8,1.1,1.2,1.1,2.1c0,0.7-0.1,1.7-1.5,1.7c-0.9,0-1.5-0.4-1.5-1.5v-1H16.8z"/>
	<path class="st4" d="M21.7,80.2v6.9h-0.5v-6.9h-1.3v-0.5H23v0.5H21.7z"/>
	<path class="st4" d="M25.8,81.3v-0.8h0.4v0.8H25.8z M25.8,87.1v-5.2h0.4v5.2H25.8z"/>
	<path class="st4" d="M27.6,85.3v0.5c0,0.3,0,1,0.8,1c0.4,0,0.8-0.2,0.8-0.9c0-0.5-0.1-0.7-0.9-1.3c-0.6-0.5-0.9-0.8-0.9-1.6
		c0-0.4,0.1-1.1,1.1-1.1c1.1,0,1.1,0.8,1.1,1.2v0.4h-0.4v-0.4c0-0.6-0.2-0.8-0.6-0.8c-0.6,0-0.7,0.4-0.7,0.7c0,0.5,0,0.6,1,1.4
		c0.5,0.4,0.8,0.7,0.8,1.4c0,0.8-0.3,1.3-1.2,1.3c-1.1,0-1.2-0.6-1.2-1.5v-0.4H27.6z"/>
	<path class="st4" d="M35.1,87.1c-0.4,0-0.6-0.1-0.7-0.4c-0.2,0.1-0.5,0.4-1,0.4c-0.7,0-1-0.6-1-1.2c0-1.5,1.4-1.6,2-2.2V83
		c0-0.4-0.1-0.7-0.6-0.7c-0.5,0-0.7,0.3-0.7,1v0.3h-0.4v-0.3c0-1,0.4-1.4,1.2-1.4c0.7,0,1.1,0.4,1.1,1.1v3.6c0,0.2,0.1,0.2,0.3,0.2
		L35.1,87.1L35.1,87.1z M34.4,84.2c-0.3,0.2-0.6,0.3-0.9,0.5c-0.5,0.3-0.7,0.6-0.7,1.2c0,0.2,0,0.8,0.7,0.8c0.4,0,0.7-0.2,0.9-0.5
		V84.2z"/>
	<path class="st4" d="M38.5,81.9v0.9c0.2-0.6,0.7-0.9,1.1-1.1v0.6c-0.1,0-0.3,0.1-0.4,0.2c-0.4,0.2-0.6,0.8-0.7,0.9v3.7H38v-5.2
		H38.5z"/>
	<path class="st4" d="M42.6,85.9c0,0.6-0.3,1.2-1.2,1.2c-0.7,0-1.2-0.4-1.2-1.2v-2.8c0-0.6,0.3-1.2,1.2-1.2c0.8,0,1.2,0.4,1.2,1.4
		v1.3h-2v1.3c0,0.3,0.1,0.9,0.7,0.9c0.7,0,0.8-0.6,0.8-1.1v-0.4h0.4V85.9z M42.1,83.1c0-0.6-0.3-0.9-0.7-0.9c-0.5,0-0.8,0.4-0.8,0.9
		v1h1.5V83.1z"/>
	<path class="st4" d="M46,87.5c0,0.9-0.6,1.3-1.3,1.3c-0.4,0-0.9-0.1-1-0.5c-0.1-0.1-0.1-0.3-0.1-0.6H44c0,0,0,0.2,0.1,0.4
		c0.2,0.3,0.6,0.3,0.6,0.3c0.1,0,0.8-0.1,0.8-0.8v-0.9c-0.1,0.1-0.4,0.5-0.9,0.5c-0.7,0-1-0.6-1-1.2V83c0-0.9,0.5-1.2,1.1-1.2
		c0.5,0,0.8,0.3,0.9,0.5v-0.4H46V87.5z M45.6,83c-0.1-0.4-0.4-0.7-0.8-0.7c-0.6,0-0.7,0.5-0.7,0.9v2.6c0,0.7,0.3,0.9,0.7,0.9
		c0.3,0,0.7-0.2,0.8-0.8V83z"/>
	<path class="st4" d="M47.2,81.3v-0.8h0.4v0.8H47.2z M47.2,87.1v-5.2h0.4v5.2H47.2z"/>
	<path class="st4" d="M49,85.3v0.5c0,0.3,0,1,0.8,1c0.4,0,0.8-0.2,0.8-0.9c0-0.5-0.1-0.7-0.9-1.3c-0.6-0.5-0.9-0.8-0.9-1.6
		c0-0.4,0.1-1.1,1.1-1.1c1.1,0,1.1,0.8,1.1,1.2v0.4h-0.4v-0.4c0-0.6-0.2-0.8-0.6-0.8c-0.6,0-0.7,0.4-0.7,0.7c0,0.5,0,0.6,1,1.4
		c0.5,0.4,0.8,0.7,0.8,1.4c0,0.8-0.3,1.3-1.2,1.3c-1.1,0-1.2-0.6-1.2-1.5v-0.4H49z"/>
	<path class="st4" d="M51.5,81.9h0.6v-1.4h0.4v1.4h0.8v0.4h-0.8v4.1c0,0.3,0.3,0.3,0.4,0.3c0.1,0,0.3,0,0.4,0v0.4
		c-0.2,0-0.3,0-0.5,0c-0.6,0-0.8-0.2-0.8-0.6v-4.2h-0.6V81.9z"/>
	<path class="st4" d="M56.3,85.9c0,0.6-0.3,1.2-1.2,1.2c-0.7,0-1.2-0.4-1.2-1.2v-2.8c0-0.6,0.3-1.2,1.2-1.2c0.8,0,1.2,0.4,1.2,1.4
		v1.3h-2v1.3c0,0.3,0.1,0.9,0.7,0.9c0.7,0,0.8-0.6,0.8-1.1v-0.4h0.4V85.9z M55.9,83.1c0-0.6-0.3-0.9-0.7-0.9c-0.5,0-0.8,0.4-0.8,0.9
		v1h1.5V83.1z"/>
	<path class="st4" d="M57.8,81.9v0.9c0.2-0.6,0.7-0.9,1.1-1.1v0.6c-0.1,0-0.3,0.1-0.4,0.2c-0.4,0.2-0.6,0.8-0.7,0.9v3.7h-0.4v-5.2
		H57.8z"/>
	<path class="st4" d="M62,85.9c0,0.6-0.3,1.2-1.2,1.2c-0.7,0-1.2-0.4-1.2-1.2v-2.8c0-0.6,0.3-1.2,1.2-1.2c0.8,0,1.2,0.4,1.2,1.4v1.3
		h-2v1.3c0,0.3,0.1,0.9,0.7,0.9c0.7,0,0.8-0.6,0.8-1.1v-0.4H62V85.9z M61.5,83.1c0-0.6-0.3-0.9-0.7-0.9c-0.5,0-0.8,0.4-0.8,0.9v1
		h1.5V83.1z"/>
	<path class="st4" d="M65,87.1v-0.6c-0.1,0.2-0.4,0.6-1,0.6c-0.5,0-1-0.3-1-1.2v-2.8c0-0.9,0.5-1.3,1.1-1.3c0.6,0,0.8,0.4,0.9,0.5
		v-2.6h0.4v7.3H65z M65,83.2c-0.1-0.5-0.3-0.9-0.8-0.9c-0.5,0-0.7,0.4-0.7,0.8v2.7c0,0.3,0.1,0.9,0.7,0.9c0.4,0,0.7-0.4,0.8-0.8
		V83.2z"/>
	<path class="st4" d="M68.2,81.9h0.6v-1.4h0.4v1.4H70v0.4h-0.8v4.1c0,0.3,0.3,0.3,0.4,0.3c0.1,0,0.3,0,0.4,0v0.4c-0.2,0-0.3,0-0.5,0
		c-0.6,0-0.8-0.2-0.8-0.6v-4.2h-0.6V81.9z"/>
	<path class="st4" d="M71.1,81.9v0.9c0.2-0.6,0.7-0.9,1.1-1.1v0.6c-0.1,0-0.3,0.1-0.4,0.2c-0.4,0.2-0.6,0.8-0.7,0.9v3.7h-0.4v-5.2
		H71.1z"/>
	<path class="st4" d="M75.4,87.1c-0.4,0-0.6-0.1-0.7-0.4c-0.2,0.1-0.5,0.4-1,0.4c-0.7,0-1-0.6-1-1.2c0-1.5,1.4-1.6,2-2.2V83
		c0-0.4-0.1-0.7-0.6-0.7c-0.5,0-0.7,0.3-0.7,1v0.3h-0.4v-0.3c0-1,0.4-1.4,1.2-1.4c0.8,0,1.1,0.4,1.1,1.1v3.6c0,0.2,0.1,0.2,0.3,0.2
		L75.4,87.1L75.4,87.1z M74.7,84.2c-0.3,0.2-0.6,0.3-0.9,0.5c-0.5,0.3-0.7,0.6-0.7,1.2c0,0.2,0,0.8,0.7,0.8c0.4,0,0.7-0.2,0.9-0.5
		V84.2z"/>
	<path class="st4" d="M78.3,87.1v-0.6c-0.1,0.2-0.4,0.6-1,0.6c-0.5,0-1-0.3-1-1.2v-2.8c0-0.9,0.5-1.3,1.1-1.3c0.6,0,0.8,0.4,0.9,0.5
		v-2.6h0.4v7.3H78.3z M78.2,83.2c-0.1-0.5-0.3-0.9-0.8-0.9c-0.5,0-0.7,0.4-0.7,0.8v2.7c0,0.3,0.1,0.9,0.7,0.9c0.4,0,0.8-0.4,0.8-0.8
		V83.2z"/>
	<path class="st4" d="M82.2,85.9c0,0.6-0.3,1.2-1.2,1.2c-0.7,0-1.2-0.4-1.2-1.2v-2.8c0-0.6,0.3-1.2,1.2-1.2c0.8,0,1.2,0.4,1.2,1.4
		v1.3h-2v1.3c0,0.3,0.1,0.9,0.7,0.9c0.7,0,0.8-0.6,0.8-1.1v-0.4h0.4V85.9z M81.7,83.1c0-0.6-0.3-0.9-0.7-0.9c-0.5,0-0.8,0.4-0.8,0.9
		v1h1.5V83.1z"/>
	<path class="st4" d="M87.2,87.1v-4c0-0.5-0.1-0.9-0.7-0.9c-0.4,0-0.7,0.3-0.9,0.6v4.2h-0.4V83c0-0.5-0.2-0.7-0.7-0.7
		c-0.5,0-0.8,0.4-0.8,0.6v4.3h-0.4v-5.2h0.4v0.4c0.1-0.2,0.5-0.5,1-0.5c0.6,0,0.8,0.4,0.9,0.6c0.1-0.2,0.4-0.6,1.1-0.6
		c0.5,0,1,0.3,1,1.2v4.2H87.2z"/>
	<path class="st4" d="M91.2,87.1c-0.4,0-0.6-0.1-0.7-0.4c-0.2,0.1-0.5,0.4-1,0.4c-0.7,0-1-0.6-1-1.2c0-1.5,1.4-1.6,2-2.2V83
		c0-0.4-0.1-0.7-0.6-0.7c-0.5,0-0.7,0.3-0.7,1v0.3h-0.4v-0.3c0-1,0.4-1.4,1.2-1.4c0.7,0,1.1,0.4,1.1,1.1v3.6c0,0.2,0.1,0.2,0.3,0.2
		L91.2,87.1L91.2,87.1z M90.6,84.2c-0.3,0.2-0.6,0.3-0.9,0.5C89.2,85,89,85.3,89,85.9c0,0.2,0,0.8,0.7,0.8c0.4,0,0.7-0.2,0.9-0.5
		V84.2z"/>
	<path class="st4" d="M92.6,81.9v0.9c0.2-0.6,0.7-0.9,1.1-1.1v0.6c-0.1,0-0.3,0.1-0.4,0.2c-0.4,0.2-0.6,0.8-0.7,0.9v3.7h-0.4v-5.2
		H92.6z"/>
	<path class="st4" d="M96.5,87.1l-1.1-2.8l-0.5,0.8v1.9h-0.4v-7.3h0.4v4.6l1.5-2.5h0.5l-1.2,2l1.3,3.2H96.5z"/>
	<path class="st4" d="M102.1,85.7c0,1-0.6,1.4-1.2,1.4c-0.7,0-1.2-0.4-1.2-1.1v-2.9c0-0.6,0.3-1.3,1.3-1.3c0.8,0,1.2,0.5,1.2,1.3
		V85.7z M101.7,83.2c0-0.4-0.1-0.9-0.7-0.9c-0.7,0-0.8,0.5-0.8,1v2.6c0,0.6,0.3,0.8,0.8,0.8c0.7,0,0.8-0.6,0.8-0.9V83.2z"/>
	<path class="st4" d="M102.8,81.9h0.6v-1.3c0-0.4,0.2-0.8,0.9-0.8c0.1,0,0.2,0,0.3,0v0.4c0,0-0.1,0-0.2,0c-0.3,0-0.6,0.1-0.6,0.6
		v1.1h0.6v0.4h-0.7v4.8h-0.4v-4.8h-0.6V81.9z"/>
	<path class="st4" d="M6.9,96.7v0.6c0,0.6,0,0.9,0.2,1.1c0.2,0.3,0.6,0.4,0.9,0.4c0.7,0,0.9-0.5,0.9-1.2c0-0.8-0.2-1.1-1.1-2
		c-0.8-0.8-1.3-1.3-1.3-2.3c0-0.6,0.1-1.6,1.4-1.6c1.3,0,1.4,1,1.4,1.7v0.5H8.8v-0.7c0-0.4,0-1.1-0.9-1.1c-0.6,0-0.9,0.4-0.9,1.1
		s0.1,1,1.2,2.1c0.8,0.8,1.1,1.2,1.1,2.1c0,0.7-0.1,1.7-1.5,1.7c-0.9,0-1.5-0.4-1.5-1.5v-1H6.9z"/>
	<path class="st4" d="M9.9,93.9h0.6v-1.4h0.4v1.4h0.8v0.4h-0.8v4.1c0,0.3,0.3,0.3,0.4,0.3c0.1,0,0.3,0,0.4,0v0.4c-0.2,0-0.3,0-0.5,0
		c-0.6,0-0.8-0.2-0.8-0.6v-4.2H9.9V93.9z"/>
	<path class="st4" d="M14.7,98c0,0.6-0.3,1.2-1.2,1.2c-0.7,0-1.2-0.4-1.2-1.2v-2.8c0-0.6,0.3-1.2,1.2-1.2c0.8,0,1.2,0.4,1.2,1.4v1.3
		h-2v1.3c0,0.3,0.1,0.9,0.7,0.9c0.7,0,0.8-0.6,0.8-1.1v-0.4h0.4V98z M14.2,95.2c0-0.6-0.3-0.9-0.7-0.9c-0.5,0-0.8,0.4-0.8,0.9v1h1.5
		V95.2z"/>
	<path class="st4" d="M15.7,93.3v-0.8h0.4v0.8H15.7z M15.7,99.2v-5.2h0.4v5.2H15.7z"/>
	<path class="st4" d="M19.3,99.2V95c0-0.4-0.1-0.8-0.6-0.8c-0.4,0-0.7,0.2-0.9,0.7v4.3h-0.4v-5.2h0.4v0.5c0.3-0.5,0.8-0.6,1-0.6
		c0.4,0,1,0.2,1,1.1v4.2H19.3z"/>
	<path class="st4" d="M20.9,91.8h0.4v2.6c0.3-0.4,0.7-0.5,1-0.5c0.9,0,1,0.8,1,1.3v2.7c0,0.5-0.3,1.2-1.1,1.2c-0.1,0-0.6,0-0.8-0.5
		v0.4h-0.5V91.8z M21.4,97.7c0,0.9,0.6,1,0.8,1c0.5,0,0.7-0.4,0.7-1v-2.6c0-0.2,0-0.9-0.7-0.9c-0.5,0-0.8,0.4-0.8,0.9V97.7z"/>
	<path class="st4" d="M26.8,98c0,0.6-0.3,1.2-1.2,1.2c-0.7,0-1.2-0.4-1.2-1.2v-2.8c0-0.6,0.3-1.2,1.2-1.2c0.8,0,1.2,0.4,1.2,1.4v1.3
		h-2v1.3c0,0.3,0.1,0.9,0.7,0.9c0.7,0,0.8-0.6,0.8-1.1v-0.4h0.4V98z M26.3,95.2c0-0.6-0.3-0.9-0.7-0.9c-0.5,0-0.8,0.4-0.8,0.9v1h1.5
		V95.2z"/>
	<path class="st4" d="M28.3,93.9v0.9c0.2-0.6,0.7-0.9,1.1-1.1v0.6c-0.1,0-0.3,0.1-0.4,0.2c-0.4,0.2-0.6,0.8-0.7,0.9v3.7h-0.4v-5.2
		H28.3z"/>
	<path class="st4" d="M32.5,99.5c0,0.9-0.6,1.3-1.3,1.3c-0.4,0-0.9-0.1-1-0.5c-0.1-0.1-0.1-0.3-0.1-0.6h0.4c0,0,0,0.2,0.1,0.4
		c0.2,0.3,0.6,0.3,0.6,0.3c0.1,0,0.8-0.1,0.8-0.8v-0.9c-0.1,0.1-0.4,0.5-0.9,0.5c-0.7,0-1-0.6-1-1.2v-2.9c0-0.9,0.5-1.2,1.1-1.2
		c0.5,0,0.8,0.3,0.9,0.5v-0.4h0.4V99.5z M32,95c-0.1-0.4-0.4-0.7-0.8-0.7c-0.6,0-0.7,0.5-0.7,0.9v2.6c0,0.7,0.3,0.9,0.7,0.9
		c0.3,0,0.7-0.2,0.8-0.8V95z"/>
	<path class="st4" d="M39.3,99.2c0-0.5,0-5.1,0-6.8L38,99.2h-0.5l-1.3-6.8v6.8h-0.5c0-0.5,0.1-7.3,0.1-7.3h0.7l1.2,6.3l1.2-6.3h0.7
		c0,0.8,0.1,7.3,0.1,7.3H39.3z"/>
	<path class="st4" d="M43.3,98c0,0.6-0.3,1.2-1.2,1.2c-0.7,0-1.2-0.4-1.2-1.2v-2.8c0-0.6,0.3-1.2,1.2-1.2c0.8,0,1.2,0.4,1.2,1.4v1.3
		h-2v1.3c0,0.3,0.1,0.9,0.7,0.9c0.7,0,0.8-0.6,0.8-1.1v-0.4h0.4V98z M42.9,95.2c0-0.6-0.3-0.9-0.7-0.9c-0.5,0-0.8,0.4-0.8,0.9v1h1.5
		V95.2z"/>
	<path class="st4" d="M46.3,99.2v-0.6c-0.1,0.2-0.4,0.6-1,0.6c-0.5,0-1-0.3-1-1.2v-2.8c0-0.9,0.5-1.3,1.1-1.3c0.6,0,0.8,0.4,0.9,0.5
		v-2.6h0.4v7.3H46.3z M46.3,95.3c-0.1-0.5-0.3-0.9-0.8-0.9c-0.5,0-0.7,0.4-0.7,0.8v2.7c0,0.3,0.1,0.9,0.7,0.9c0.4,0,0.7-0.4,0.8-0.8
		V95.3z"/>
	<path class="st4" d="M48,93.3v-0.8h0.4v0.8H48z M48,99.2v-5.2h0.4v5.2H48z"/>
	<path class="st4" d="M52,99.2c-0.4,0-0.6-0.1-0.7-0.4c-0.2,0.1-0.5,0.4-1,0.4c-0.7,0-1-0.6-1-1.2c0-1.5,1.4-1.6,2-2.2V95
		c0-0.4-0.1-0.7-0.6-0.7c-0.5,0-0.7,0.3-0.7,1v0.3h-0.4v-0.3c0-1,0.4-1.4,1.2-1.4c0.7,0,1.1,0.4,1.1,1.1v3.6c0,0.2,0.1,0.2,0.3,0.2
		L52,99.2L52,99.2z M51.4,96.2c-0.3,0.2-0.6,0.3-0.9,0.5c-0.5,0.3-0.7,0.6-0.7,1.2c0,0.2,0,0.8,0.7,0.8c0.4,0,0.7-0.2,0.9-0.5V96.2z
		"/>
	<path class="st4" d="M56.3,92.3v6.9h-0.5v-6.9h-1.3v-0.5h3.1v0.5H56.3z"/>
	<path class="st4" d="M60,98c0,0.6-0.3,1.2-1.2,1.2c-0.7,0-1.2-0.4-1.2-1.2v-2.8c0-0.6,0.3-1.2,1.2-1.2c0.8,0,1.2,0.4,1.2,1.4v1.3
		h-2v1.3c0,0.3,0.1,0.9,0.7,0.9c0.7,0,0.8-0.6,0.8-1.1v-0.4H60V98z M59.6,95.2c0-0.6-0.3-0.9-0.7-0.9c-0.5,0-0.8,0.4-0.8,0.9v1h1.5
		V95.2z"/>
	<path class="st4" d="M63.5,97.8c0,0.8-0.3,1.4-1.3,1.4c-0.9,0-1.2-0.7-1.2-1.3v-2.6c0-1,0.5-1.3,1.2-1.3c0.8,0,1.2,0.5,1.2,1.4v0.5
		H63v-0.4c0-0.5-0.1-1.1-0.8-1.1c-0.7,0-0.8,0.6-0.8,1v2.3c0,0.5,0,1.2,0.8,1.2c0.6,0,0.7-0.5,0.7-0.9v-0.8h0.5V97.8z"/>
	<path class="st4" d="M66.4,99.2v-3.9c0-0.5-0.1-0.9-0.7-0.9c-0.5,0-0.8,0.4-0.8,0.7v4.2h-0.4v-7.3h0.4v2.5c0.1-0.1,0.4-0.5,0.9-0.5
		c0.4,0,1,0.2,1,1.1v4.2H66.4z"/>
	<path class="st4" d="M70,99.2V95c0-0.4-0.1-0.8-0.6-0.8c-0.4,0-0.7,0.2-0.9,0.7v4.3H68v-5.2h0.4v0.5c0.3-0.5,0.8-0.6,1-0.6
		c0.4,0,1,0.2,1,1.1v4.2H70z"/>
	<path class="st4" d="M74,97.8c0,1-0.6,1.4-1.2,1.4c-0.7,0-1.2-0.4-1.2-1.1v-2.9c0-0.6,0.3-1.3,1.3-1.3c0.8,0,1.2,0.5,1.2,1.3V97.8z
		 M73.5,95.2c0-0.4-0.1-0.9-0.7-0.9c-0.7,0-0.8,0.5-0.8,1v2.6c0,0.6,0.3,0.8,0.8,0.8c0.7,0,0.8-0.6,0.8-0.9V95.2z"/>
	<path class="st4" d="M75,99.2v-7.3h0.4v7.3H75z"/>
	<path class="st4" d="M79.1,97.8c0,1-0.6,1.4-1.2,1.4c-0.7,0-1.2-0.4-1.2-1.1v-2.9c0-0.6,0.3-1.3,1.3-1.3c0.8,0,1.2,0.5,1.2,1.3
		V97.8z M78.6,95.2c0-0.4-0.1-0.9-0.7-0.9c-0.7,0-0.8,0.5-0.8,1v2.6c0,0.6,0.3,0.8,0.8,0.8c0.7,0,0.8-0.6,0.8-0.9V95.2z"/>
	<path class="st4" d="M82.6,99.5c0,0.9-0.6,1.3-1.3,1.3c-0.4,0-0.9-0.1-1-0.5c-0.1-0.1-0.1-0.3-0.1-0.6h0.4c0,0,0,0.2,0.1,0.4
		c0.2,0.3,0.6,0.3,0.6,0.3c0.1,0,0.8-0.1,0.8-0.8v-0.9c-0.1,0.1-0.4,0.5-0.9,0.5c-0.8,0-1-0.6-1-1.2v-2.9c0-0.9,0.5-1.2,1.1-1.2
		c0.5,0,0.8,0.3,0.9,0.5v-0.4h0.4V99.5z M82.2,95c-0.1-0.4-0.4-0.7-0.8-0.7c-0.6,0-0.7,0.5-0.7,0.9v2.6c0,0.7,0.3,0.9,0.7,0.9
		c0.3,0,0.7-0.2,0.8-0.8V95z"/>
	<path class="st4" d="M83.8,93.3v-0.8h0.4v0.8H83.8z M83.8,99.2v-5.2h0.4v5.2H83.8z"/>
	<path class="st4" d="M87.7,98c0,0.6-0.3,1.2-1.2,1.2c-0.7,0-1.2-0.4-1.2-1.2v-2.8c0-0.6,0.3-1.2,1.2-1.2c0.8,0,1.2,0.4,1.2,1.4v1.3
		h-2v1.3c0,0.3,0.1,0.9,0.7,0.9c0.7,0,0.8-0.6,0.8-1.1v-0.4h0.4V98z M87.3,95.2c0-0.6-0.3-0.9-0.7-0.9c-0.5,0-0.8,0.4-0.8,0.9v1h1.5
		V95.2z"/>
	<path class="st4" d="M89,97.3v0.5c0,0.3,0,1,0.8,1c0.4,0,0.8-0.2,0.8-0.9c0-0.5-0.1-0.7-0.9-1.3c-0.6-0.5-0.9-0.8-0.9-1.6
		c0-0.4,0.1-1.1,1.1-1.1c1.1,0,1.1,0.8,1.1,1.2v0.4h-0.4v-0.4c0-0.6-0.2-0.8-0.6-0.8c-0.6,0-0.7,0.4-0.7,0.7c0,0.5,0,0.6,1,1.4
		c0.5,0.4,0.8,0.7,0.8,1.4c0,0.8-0.3,1.3-1.2,1.3c-1.1,0-1.2-0.6-1.2-1.5v-0.4H89z"/>
	<path class="st4" d="M96.6,99.2v-0.6c-0.1,0.2-0.5,0.7-1.2,0.7c-0.4,0-0.9-0.2-1.1-0.6C94.1,98.3,94,98,94,97.3v-3.9
		c0-1,0.4-1.6,1.5-1.6c1.1,0,1.4,0.7,1.4,1.3v1.1h-0.5v-0.9c0-0.6-0.1-1.1-1-1.1c-0.8,0-1,0.6-1,1.2v3.8c0,0.6,0,0.9,0.1,1.2
		c0.1,0.2,0.3,0.5,0.8,0.5c0.7,0,1-0.8,1-1.2v-1.3h-1.1v-0.4H97v3.4H96.6z"/>
	<path class="st4" d="M102.1,99.2v-4c0-0.5-0.1-0.9-0.7-0.9c-0.4,0-0.7,0.3-0.9,0.6v4.2h-0.4V95c0-0.5-0.2-0.7-0.7-0.7
		c-0.5,0-0.8,0.4-0.8,0.6v4.3h-0.4v-5.2h0.4v0.4c0.1-0.2,0.5-0.5,1-0.5c0.6,0,0.8,0.4,0.9,0.6c0.1-0.2,0.4-0.6,1.1-0.6
		c0.5,0,1,0.3,1,1.2v4.2H102.1z"/>
	<path class="st4" d="M103.7,91.8h0.4v2.6c0.3-0.4,0.7-0.5,1-0.5c0.9,0,1,0.8,1,1.3v2.7c0,0.5-0.3,1.2-1.1,1.2c-0.1,0-0.6,0-0.8-0.5
		v0.4h-0.5V91.8z M104.2,97.7c0,0.9,0.6,1,0.8,1c0.5,0,0.7-0.4,0.7-1v-2.6c0-0.2,0-0.9-0.7-0.9c-0.5,0-0.8,0.4-0.8,0.9V97.7z"/>
	<path class="st4" d="M109.6,99.2v-3.4h-1.8v3.4h-0.5v-7h0.5v3.1h1.8v-3.1h0.5v7H109.6z"/>
</g>
</svg>
