<?xml version="1.0" encoding="UTF-8"?>
<svg fill="#000000" version="1.1" viewBox="0 0 24 24" xmlns="http://www.w3.org/2000/svg" xmlns:cc="http://creativecommons.org/ns#" xmlns:dc="http://purl.org/dc/elements/1.1/" xmlns:rdf="http://www.w3.org/1999/02/22-rdf-syntax-ns#">
<metadata>
<rdf:RDF>
<cc:Work rdf:about="">
<dc:format>image/svg+xml</dc:format>
<dc:type rdf:resource="http://purl.org/dc/dcmitype/StillImage"/>
<dc:title/>
</cc:Work>
</rdf:RDF>
</metadata>
<path d="M 5.8095239,8.8095238 H 15.095239 V 6.5238095 c 0,-0.8571428 -0.301587,-1.5873015 -0.904762,-2.1904762 -0.603175,-0.6031746 -1.333334,-0.9047619 -2.190476,-0.9047619 -0.857143,0 -1.587302,0.3015873 -2.1904775,0.9047619 -0.603174,0.6031747 -0.904761,1.3333334 -0.904761,2.1904762 h -1.428572 c 0,-1.2539682 0.440476,-2.3214285 1.321429,-3.2023809 C 9.6785715,2.4404762 10.746033,2 12.000001,2 c 1.253968,0 2.321428,0.4404762 3.202381,1.3214286 0.880952,0.8809524 1.321427,1.9484127 1.321427,3.2023809 v 2.2857143 h 1.666668 c 0.396825,0 0.734127,0.1388891 1.011905,0.4166667 0.277777,0.2777776 0.416665,0.6150795 0.416665,1.0119045 v 10.333334 c 0,0.396825 -0.138888,0.734127 -0.416665,1.011904 C 18.924604,21.861111 18.587302,22 18.190477,22 H 5.8095239 C 5.4126987,22 5.0753969,21.861111 4.7976192,21.583333 4.5198414,21.305556 4.3809525,20.968254 4.3809525,20.571429 V 10.238095 c 0,-0.396825 0.1388889,-0.7341269 0.4166667,-1.0119045 C 5.0753969,8.9484129 5.4126987,8.8095238 5.8095239,8.8095238 Z m 0,11.7619052 H 18.190477 V 10.238095 H 5.8095239 Z m 0,0 V 10.238095 Z" style="stroke-width:0.47619;fill:#ffffff"/>
</svg>
