<?xml version="1.0" encoding="UTF-8"?>
<svg fill="#c6c6c6" version="1.1" viewBox="0 0 24 24" xmlns="http://www.w3.org/2000/svg" xmlns:cc="http://creativecommons.org/ns#" xmlns:dc="http://purl.org/dc/elements/1.1/" xmlns:rdf="http://www.w3.org/1999/02/22-rdf-syntax-ns#">
<metadata>
<rdf:RDF>
<cc:Work rdf:about="">
<dc:format>image/svg+xml</dc:format>
<dc:type rdf:resource="http://purl.org/dc/dcmitype/StillImage"/>
</cc:Work>
</rdf:RDF>
</metadata>
<path d="M0 0h24v24H0V0z" fill="none"/>
<path d="m2.9765 11.856s0.70696-1.5528 1.084-2.3179c0.31598-0.64114 0.6043-1.3 0.98708-1.9036 0.3008-0.47438 0.61478-0.95304 1.0223-1.3396 0.2684-0.25458 0.57246-0.48995 0.91657-0.62573 0.14377-0.05673 0.3044-0.08491 0.45828-0.0705 0.31638 0.02961 0.63789 0.1361 0.89894 0.31727 0.63563 0.44114 1.0612 1.1359 1.4894 1.7803 0.51414 0.77367 0.87007 1.6419 1.2779 2.4765 0.63364 1.2967 1.1939 2.6282 1.8155 3.9307 0.29483 0.61775 0.568 1.2477 0.90776 1.842 0.22851 0.39964 0.48213 0.78592 0.75793 1.1545 0.19853 0.26534 0.37768 0.55986 0.64336 0.75793 0.36278 0.27045 0.79055 0.56524 1.2427 0.54642 0.50435-0.02099 0.9528-0.38812 1.3308-0.72268 0.50787-0.44951 0.81812-1.0839 1.181-1.6569 0.22868-0.36112 0.43207-0.73823 0.62574-1.1193 0.27099-0.53318 0.49759-1.0878 0.74912-1.6304 0.18958-0.40898 0.66484-1.4162 0.66484-1.4162" fill="none" stroke="#c6c6c6" stroke-width="2.1458"/>
</svg>
